<?xml version="1.0" standalone="no"?>
<!DOCTYPE svg PUBLIC "-//W3C//DTD SVG 20010904//EN"
 "http://www.w3.org/TR/2001/REC-SVG-20010904/DTD/svg10.dtd">
<svg version="1.0" xmlns="http://www.w3.org/2000/svg"
 width="1196.000000pt" height="1080.000000pt" viewBox="0 0 1196.000000 1080.000000"
 preserveAspectRatio="xMidYMid meet">

<g transform="translate(0.000000,1080.000000) scale(0.100000,-0.100000)"
fill="#000000" stroke="none">
<path d="M9696 6643 l-439 -3 -52 -38 c-28 -20 -179 -138 -334 -262 -155 -124
-286 -226 -291 -228 -4 -2 -137 98 -296 221 -159 122 -314 241 -344 262 l-55
40 -480 -6 c-264 -4 -948 -7 -1521 -8 -572 0 -1501 -4 -2063 -8 l-1023 -6 -8
-23 c-5 -12 -12 -23 -17 -25 -4 -2 -80 -87 -167 -189 -87 -102 -171 -197 -187
-211 -28 -24 -38 -62 -21 -73 4 -2 1171 -6 2591 -7 l2584 -2 233 -186 233
-186 -23 -23 c-13 -13 -250 -220 -527 -460 -311 -270 -505 -445 -507 -457 -6
-51 -13 -50 420 -46 l402 3 363 304 c200 168 369 307 376 309 6 3 57 -36 112
-85 55 -50 126 -111 159 -138 61 -49 97 -80 314 -269 l133 -115 297 1 c378 1
635 11 644 24 12 19 -6 44 -62 88 -30 24 -277 227 -550 453 -272 225 -496 410
-498 411 -1 1 41 38 95 81 94 76 194 157 728 594 132 108 245 204 252 212 10
11 9 19 -3 36 -8 12 -18 21 -22 20 -4 -2 -204 -4 -446 -5z m324 -86 c-19 -17
-278 -228 -565 -460 -121 -97 -249 -202 -285 -233 -36 -31 -89 -76 -117 -101
-29 -24 -53 -51 -53 -58 0 -8 238 -211 529 -452 l529 -438 -82 -7 c-44 -3
-215 -6 -378 -7 l-297 -1 -128 106 c-149 124 -305 255 -482 408 -69 59 -131
110 -138 113 -6 3 -184 -140 -394 -316 l-382 -321 -341 0 c-192 0 -336 4 -330
9 5 4 230 198 499 431 270 232 498 431 507 442 14 15 15 24 6 43 -11 25 -509
429 -531 431 -7 1 -1150 2 -2540 3 l-2529 1 31 38 c47 58 170 204 236 281 l60
69 425 2 c234 0 1365 5 2515 9 l2090 9 295 -226 c162 -125 321 -246 352 -270
55 -43 58 -44 80 -28 13 9 167 133 343 275 l320 260 385 0 c322 1 382 -1 370
-12z"/>
</g>
</svg>
