<?xml version="1.0" standalone="no"?>
<!DOCTYPE svg PUBLIC "-//W3C//DTD SVG 20010904//EN"
 "http://www.w3.org/TR/2001/REC-SVG-20010904/DTD/svg10.dtd">
<svg version="1.0" xmlns="http://www.w3.org/2000/svg"
 width="238.000000pt" height="56.000000pt" viewBox="0 0 238.000000 56.000000"
 preserveAspectRatio="xMidYMid meet">

<g transform="translate(0.000000,56.000000) scale(0.100000,-0.100000)"
fill="#000000" stroke="none">
<path d="M928 483 l-436 -3 -47 -53 -48 -52 573 -3 573 -2 46 -37 c25 -20 50
-39 54 -43 4 -4 -47 -54 -113 -111 l-121 -104 91 -3 91 -3 79 66 c43 36 82 65
87 65 5 0 44 -29 85 -65 l76 -65 101 0 c56 0 101 3 100 8 0 4 -55 51 -121 105
-139 114 -140 92 11 212 55 44 100 83 100 88 1 4 -43 7 -96 7 l-98 0 -74 -59
c-41 -33 -80 -57 -85 -53 -6 3 -42 30 -80 59 l-68 53 -122 -2 c-66 -2 -318 -4
-558 -5z m756 -63 c43 -33 83 -57 90 -53 6 4 41 31 78 60 l66 54 87 -3 87 -3
-116 -94 c-64 -52 -116 -96 -116 -97 0 -1 52 -44 115 -95 63 -52 115 -97 115
-101 0 -5 -37 -8 -83 -8 l-83 0 -83 70 -83 70 -74 -62 c-41 -34 -77 -65 -80
-70 -3 -4 -42 -8 -87 -8 l-82 1 70 62 c38 34 90 80 114 103 l44 40 -59 47 -59
47 -563 0 -563 0 36 45 37 45 497 3 c273 1 523 3 556 5 60 2 62 1 139 -58z"/>
</g>
</svg>
