<?xml version="1.0" standalone="no"?>
<!DOCTYPE svg PUBLIC "-//W3C//DTD SVG 20010904//EN"
 "http://www.w3.org/TR/2001/REC-SVG-20010904/DTD/svg10.dtd">
<svg version="1.0" xmlns="http://www.w3.org/2000/svg"
 width="1196.000000pt" height="1080.000000pt" viewBox="0 0 1196.000000 1080.000000"
 preserveAspectRatio="xMidYMid meet">

<g transform="translate(0.000000,1080.000000) scale(0.100000,-0.100000)"
fill="#000000" stroke="none">
<path d="M0 5400 l0 -5400 5980 0 5980 0 0 5400 0 5400 -5980 0 -5980 0 0
-5400z m7173 1223 c-23 -2 -64 -2 -90 0 -26 2 -7 3 42 3 50 0 71 -1 48 -3z
m320 0 c-51 -2 -135 -2 -185 0 -51 1 -10 3 92 3 102 0 143 -2 93 -3z m295 0
c-10 -2 -26 -2 -35 0 -10 3 -2 5 17 5 19 0 27 -2 18 -5z m2237 -54 c4 -5 -304
-263 -405 -339 -69 -53 -361 -289 -395 -321 -16 -16 -52 -47 -80 -69 -112 -92
-145 -122 -145 -134 0 -7 195 -174 433 -371 633 -525 626 -519 614 -527 -7 -4
-178 -7 -380 -8 l-368 0 -207 172 c-305 256 -318 267 -431 365 -75 65 -110 89
-122 84 -9 -3 -167 -132 -350 -286 -184 -155 -353 -296 -377 -315 l-43 -34
-319 -4 c-175 -2 -325 0 -334 5 -12 6 99 107 475 432 269 234 501 436 514 449
23 23 24 26 9 53 -8 16 -27 37 -42 46 -15 10 -29 20 -32 23 -6 7 -351 285
-400 322 l-36 27 -2539 7 c-1397 3 -2541 7 -2542 8 -1 0 21 28 48 61 28 33 57
74 65 90 12 26 47 64 135 150 12 11 32 34 45 51 l24 31 1393 7 c765 3 1898 9
2517 12 l1125 5 215 -166 c206 -160 353 -273 446 -343 l43 -33 344 275 c320
255 347 275 388 278 70 5 708 2 714 -3z m-2562 -496 c-51 -2 -136 -2 -190 0
-54 1 -12 3 92 3 105 0 149 -2 98 -3z m117 -280 c72 -47 130 -89 130 -93 0 -4
-56 -46 -124 -94 l-124 -86 -1091 0 -1091 0 0 180 0 180 1085 0 1085 0 130
-87z m-2546 61 c14 -5 16 -30 16 -172 0 -147 -2 -171 -21 -208 -34 -71 -125
-126 -276 -169 -165 -46 -343 -55 -1125 -55 l-708 0 0 -240 0 -240 -305 0
-305 0 0 460 0 459 1008 3 1007 3 50 23 c65 30 105 69 105 102 0 15 3 30 7 33
8 9 526 9 547 1z m1706 -643 l314 -6 -264 -210 c-146 -115 -273 -218 -282
-227 -17 -17 -60 -18 -623 -18 l-605 0 0 235 0 235 573 -1 c314 -1 714 -4 887
-8z m-3390 -181 c0 -6 -28 -10 -65 -10 -37 0 -65 4 -65 10 0 6 28 10 65 10 37
0 65 -4 65 -10z m320 0 c0 -6 -43 -10 -110 -10 -67 0 -110 -4 -110 -10 0 -5
-1 -13 -2 -17 -2 -5 44 -10 101 -13 85 -4 106 -8 115 -22 8 -13 8 -23 0 -35
-9 -14 -28 -19 -89 -21 -45 -2 -83 2 -89 8 -7 7 15 10 71 10 60 0 82 4 86 14
9 23 -2 26 -103 26 -61 0 -100 4 -108 12 -17 17 -15 45 6 57 23 14 232 14 232
1z m260 0 c0 -5 -25 -10 -55 -10 l-55 0 0 -60 c0 -47 -3 -60 -15 -60 -12 0
-15 13 -15 60 l0 60 -55 0 c-30 0 -55 5 -55 10 0 6 48 10 125 10 77 0 125 -4
125 -10z m424 -6 c33 -32 9 -57 -79 -82 l-70 -20 83 -1 c47 -1 82 -5 82 -11 0
-6 -49 -10 -126 -10 -157 0 -159 12 -10 53 84 23 106 33 104 46 -3 13 -20 17
-92 19 -57 2 -93 -1 -102 -9 -19 -16 -30 -4 -14 16 18 22 202 22 224 -1z m274
4 c7 -7 12 -33 12 -58 0 -25 -5 -51 -12 -58 -16 -16 -210 -16 -226 0 -16 16
-16 100 0 116 8 8 48 12 113 12 65 0 105 -4 113 -12z m276 -10 c18 -29 -5 -51
-80 -75 l-69 -21 78 -1 c44 -1 77 -5 77 -11 0 -6 -48 -10 -125 -10 -73 0 -125
4 -125 10 0 5 33 19 73 30 132 39 152 47 152 61 0 19 -159 25 -192 8 -29 -16
-39 -7 -17 15 24 25 212 19 228 -6z m116 -48 c0 -40 -4 -70 -10 -70 -6 0 -10
27 -10 62 l0 61 -23 -21 c-13 -12 -32 -22 -42 -22 -15 0 -12 6 15 30 58 49 70
42 70 -40z m-1615 0 c4 -6 -28 -10 -89 -10 -57 0 -96 4 -96 10 0 6 36 10 89
10 50 0 93 -4 96 -10z m55 -60 c0 -6 -47 -10 -120 -10 -73 0 -120 4 -120 10 0
6 47 10 120 10 73 0 120 -4 120 -10z m6488 -177 c-15 -2 -42 -2 -60 0 -18 2
-6 4 27 4 33 0 48 -2 33 -4z m-2840 -20 c-15 -2 -42 -2 -60 0 -18 2 -6 4 27 4
33 0 48 -2 33 -4z"/>
<path d="M4414 5006 c-3 -8 -4 -29 -2 -48 l3 -33 100 0 c97 0 100 1 103 24 2
12 1 34 -2 47 -6 23 -9 24 -102 24 -72 0 -96 -3 -100 -14z"/>
</g>
</svg>
